<svg width="50" height="50" viewBox="0 0 50 50" fill="none" xmlns="http://www.w3.org/2000/svg">
<rect width="50" height="50" fill="white"/>
<path fill-rule="evenodd" clip-rule="evenodd" d="M25 24H26.652C28.36 24 29.282 26.004 28.17 27.302L26.552 29.189C26.727 30.3083 27.3175 31.3204 28.2059 32.0234C29.0943 32.7264 30.215 33.0686 31.3446 32.9816C32.4741 32.8946 33.5293 32.3849 34.2995 31.5542C35.0698 30.7235 35.4985 29.6329 35.5 28.5C35.5 28.1022 35.658 27.7206 35.9393 27.4393C36.2206 27.158 36.6022 27 37 27C37.3978 27 37.7794 27.158 38.0607 27.4393C38.342 27.7206 38.5 28.1022 38.5 28.5C38.5 30.0741 38.0047 31.6083 37.0843 32.8853C36.1639 34.1623 34.865 35.1173 33.3717 35.6151C31.8784 36.1129 30.2663 36.1282 28.7637 35.6589C27.2612 35.1895 25.9445 34.2593 25 33C24.0555 34.2593 22.7388 35.1895 21.2363 35.6589C19.7337 36.1282 18.1216 36.1129 16.6283 35.6151C15.135 35.1173 13.8361 34.1623 12.9157 32.8853C11.9953 31.6083 11.5 30.0741 11.5 28.5C11.5 28.1022 11.658 27.7206 11.9393 27.4393C12.2206 27.158 12.6022 27 13 27C13.3978 27 13.7794 27.158 14.0607 27.4393C14.342 27.7206 14.5 28.1022 14.5 28.5C14.4983 29.6349 14.9254 30.7285 15.6958 31.5618C16.4662 32.3951 17.523 32.9065 18.6545 32.9936C19.786 33.0808 20.9087 32.7371 21.7976 32.0316C22.6865 31.3261 23.276 30.3107 23.448 29.189L21.83 27.302C20.718 26.004 21.64 24 23.35 24H25Z" fill="#333333"/>
<path d="M32 20C33.6569 20 35 18.6569 35 17C35 15.3431 33.6569 14 32 14C30.3431 14 29 15.3431 29 17C29 18.6569 30.3431 20 32 20Z" fill="#333333"/>
<path d="M18 20C19.6569 20 21 18.6569 21 17C21 15.3431 19.6569 14 18 14C16.3431 14 15 15.3431 15 17C15 18.6569 16.3431 20 18 20Z" fill="#333333"/>
</svg>
